# Blender v2.79 (sub 0) OBJ File: 'house.blend'
# www.blender.org
mtllib house.mtl
o Cube_Cube.001
v 0.500000 -0.500000 0.000000 1.000000 0.905882 0.000000
v 0.500000 -0.500000 1.000000 0.941176 0.996078 0.000000
v -0.500000 -0.500000 0.000000 1.000000 0.905882 0.000000
v -0.500000 -0.500000 1.000000 1.000000 0.737255 0.000000
v 0.500000 0.500000 0.000000 1.000000 0.905882 0.000000
v 0.500000 0.500000 1.000000 0.964706 0.858824 0.043137
v -0.500000 0.500000 0.000000 1.000000 0.905882 0.000000
v -0.500000 0.500000 1.000000 1.000000 0.823529 0.000000
v 0.000000 -0.500000 2.000000 1.000000 0.000000 0.007843
v 0.000000 0.500000 2.000000 1.000000 0.066667 0.000000
v 0.750000 0.500000 1.000000 1.000000 0.000000 0.007843
v 0.750000 -0.500000 1.000000 1.000000 0.066667 0.000000
v -0.750000 -0.500000 1.000000 0.137255 0.000000 1.000000
v -0.750000 0.500000 1.000000 0.980392 0.207843 0.019608
v -0.500000 0.500000 0.666667 1.000000 0.905882 0.000000
v 0.166667 0.500000 0.000000 0.945098 0.996078 0.000000
v -0.166667 0.500000 0.000000 0.992157 0.921569 0.000000
v 0.500000 0.500000 0.666667 1.000000 0.905882 0.000000
v -0.166667 0.500000 0.666667 1.000000 0.905882 0.000000
v 0.166667 0.500000 0.666667 1.000000 0.905882 0.000000
vn 0.7071 -0.7071 0.0000
vn 0.5773 -0.5773 -0.5773
vn -0.5773 -0.5773 -0.5773
vn -0.7071 -0.7071 0.0000
vn 0.0000 -0.5639 0.8258
vn 0.0000 0.5639 0.8258
vn -0.7465 0.5508 -0.3732
vn -0.7465 -0.5508 -0.3732
vn 0.5773 0.5773 -0.5773
vn 0.7465 0.5508 -0.3732
vn 0.7465 -0.5508 -0.3732
vn -0.5773 0.5773 -0.5773
vn -0.7071 0.7071 0.0000
vn 0.0000 1.0000 0.0000
vn 0.7071 0.7071 0.0000
usemtl None
s 1
f 1//1 2//2 4//3 3//4
f 9//5 10//6 14//7 13//8
f 2//2 6//9 11//10 12//11
f 13//8 12//11 9//5
f 8//12 4//3 13//8 14//7
f 10//6 9//5 12//11 11//10
f 7//13 15//14 19//14 17//14
f 16//14 20//14 18//14 5//15
f 18//14 15//14 8//12 6//9
f 14//7 10//6 11//10
f 4//3 8//12 7//13 3//4
f 2//2 1//1 5//15 6//9
