# Blender v2.79 (sub 0) OBJ File: 'microPerson.blend'
# www.blender.org
B base
B foot.L
B foot.R
B forearm.L
B forearm.R
B hand.L
B hand.R
B head
B shin.L
B shin.R
B spine
B thigh.L
B thigh.R
B upper_arm.L
B upper_arm.R
o Cube.001_Cube.002
g head
v 0.062412 1.619383 0.019737
v 0.059448 1.630267 -0.075109
v 0.000000 1.627223 0.063918
v 0.000000 1.636365 -0.099317
v -0.062412 1.619383 0.019737
v -0.059448 1.630267 -0.075109
g hand.L
v 0.780917 1.484805 -0.052350
v 0.780721 1.488675 -0.133940
v 0.786338 1.418040 -0.064500
v 0.780539 1.433266 -0.132066
g upper_arm.L
v 0.181213 1.532081 -0.016510
v 0.180881 1.535276 -0.107559
v 0.450345 1.465187 -0.005929
v 0.442727 1.374598 -0.094065
v 0.450012 1.531830 -0.068054
v 0.442393 1.441311 -0.156272
g forearm.L
v 0.576438 1.377044 -0.077423
v 0.582203 1.482829 -0.024584
v 0.581870 1.520631 -0.107500
v 0.576105 1.414846 -0.160339
g spine
v 0.083168 1.521666 -0.042727
v 0.124602 1.376259 -0.137582
v 0.231213 1.392136 0.018951
v 0.231013 1.350593 -0.112328
v 0.000000 1.532299 0.046187
v 0.000000 1.544371 -0.100534
v -0.083168 1.521666 -0.042727
v 0.000000 1.299561 -0.124893
v -0.124602 1.376259 -0.137582
v -0.231213 1.392136 0.018951
v -0.231013 1.350593 -0.112328
v 0.000000 1.366591 0.125782
g base
v 0.198216 1.167773 -0.023623
v 0.000000 1.160917 -0.111423
v -0.198216 1.167773 -0.023623
v 0.000000 0.920760 0.025802
v 0.000000 0.931466 -0.131876
g thigh.L
v 0.108086 0.864062 0.016455
v 0.060538 0.889381 -0.125212
v 0.246120 0.943193 -0.005907
v 0.156301 0.930684 -0.168890
v 0.193247 0.547368 -0.125340
v 0.205429 0.559038 0.033054
g shin.L
v 0.181759 0.160284 -0.020989
v 0.301925 0.174976 -0.031673
v 0.237628 0.184278 -0.131197
v 0.285935 0.532251 -0.039665
v 0.117313 0.512038 -0.005758
v 0.208469 0.493523 0.018780
g foot.L
v 0.249828 -0.000000 -0.135738
v 0.177945 -0.000000 0.393984
v 0.370063 -0.000000 0.391479
g upper_arm.R
v -0.181213 1.532081 -0.016510
v -0.180881 1.535276 -0.107559
v -0.450345 1.465187 -0.005929
v -0.442727 1.374598 -0.094065
v -0.450012 1.531830 -0.068054
v -0.442393 1.441311 -0.156272
g forearm.R
v -0.576438 1.377044 -0.077423
v -0.582203 1.482829 -0.024584
v -0.581870 1.520631 -0.107500
v -0.576105 1.414846 -0.160339
g hand.R
v -0.780917 1.484805 -0.052350
v -0.780721 1.488675 -0.133940
v -0.786338 1.418040 -0.064500
v -0.780539 1.433266 -0.132066
g thigh.R
v -0.108086 0.864062 0.016455
v -0.060538 0.889381 -0.125212
v -0.246120 0.943193 -0.005907
v -0.156301 0.930684 -0.168890
v -0.193247 0.547368 -0.125340
v -0.205429 0.559038 0.033054
g shin.R
v -0.181759 0.160284 -0.020989
v -0.301925 0.174976 -0.031673
v -0.237628 0.184278 -0.131197
v -0.285935 0.532251 -0.039665
v -0.117313 0.512038 -0.005758
v -0.208469 0.493523 0.018780
g foot.R
v -0.249828 -0.000000 -0.135738
v -0.177945 -0.000000 0.393984
v -0.370063 -0.000000 0.391479
vn 0.9773 0.2116 -0.0063
vn -0.1149 0.9928 0.0353
vn 0.6828 -0.2850 0.6727
vn 0.3782 0.0123 -0.9256
vn -0.2091 -0.4391 -0.8737
vn 0.1267 0.3021 -0.9448
vn -0.2699 0.1448 0.9519
vn -0.1710 0.2409 -0.9554
vn 0.9869 -0.1541 0.0473
vn -0.5056 -0.8624 -0.0235
vn 0.0709 -0.3517 0.9334
vn -0.0497 0.5850 -0.8095
vn 0.1059 0.9640 0.2439
vn 0.0144 0.3009 -0.9535
vn 0.1662 -0.9279 -0.3337
vn -0.9425 -0.3087 -0.1279
vn -0.0000 -1.0000 0.0000
vn 0.9630 -0.1561 -0.2196
vn 0.0504 -0.5847 0.8097
vn 0.1082 0.8070 0.5806
vn -0.0454 -0.8107 -0.5837
vn 0.1187 0.0952 0.9884
vn 0.4207 0.5545 0.7180
vn 0.2387 -0.3237 -0.9156
vn 0.4479 -0.2071 0.8698
vn -0.0977 -0.2403 -0.9658
vn 0.1976 -0.8429 0.5005
vn 0.0744 0.4407 0.8946
vn 0.0760 0.8951 -0.4394
vn 0.8409 0.0689 -0.5368
vn -0.8867 -0.0474 -0.4598
vn 0.5419 -0.1293 -0.8304
vn 0.5582 -0.1523 0.8156
vn -0.0279 0.9274 0.3731
vn 0.1095 0.0888 0.9900
vn -0.7642 -0.2963 -0.5728
vn -0.3715 -0.0682 0.9259
vn -0.3605 -0.1395 -0.9223
vn -0.9495 -0.0445 0.3107
vn 0.6390 -0.1353 0.7572
vn -0.8707 -0.1391 -0.4717
vn 0.1031 -0.1260 0.9867
vn 0.5875 0.0444 0.8080
vn -0.8280 -0.0923 -0.5531
vn -0.2762 -0.0920 0.9567
vn 0.6840 0.0953 -0.7232
vn 0.6770 -0.0183 -0.7357
vn 0.8408 0.0255 -0.5408
vn 0.6711 0.0041 0.7414
vn -0.2945 -0.2165 0.9308
vn 0.1289 0.3216 -0.9381
vn 0.8639 0.1315 -0.4862
vn -0.9773 0.2116 -0.0063
vn 0.1149 0.9928 0.0353
vn -0.6828 -0.2850 0.6727
vn -0.3782 0.0123 -0.9256
vn 0.2091 -0.4391 -0.8737
vn -0.1267 0.3021 -0.9448
vn 0.2699 0.1448 0.9519
vn 0.1710 0.2409 -0.9554
vn -0.9869 -0.1541 0.0473
vn 0.5056 -0.8624 -0.0235
vn -0.0709 -0.3517 0.9334
vn 0.0497 0.5850 -0.8095
vn -0.1059 0.9640 0.2439
vn -0.0144 0.3009 -0.9535
vn -0.1662 -0.9279 -0.3337
vn 0.9425 -0.3087 -0.1279
vn -0.9630 -0.1561 -0.2196
vn -0.0504 -0.5847 0.8097
vn -0.1082 0.8070 0.5806
vn 0.0454 -0.8107 -0.5837
vn -0.1187 0.0952 0.9884
vn -0.4207 0.5545 0.7180
vn -0.2387 -0.3237 -0.9156
vn -0.4479 -0.2071 0.8698
vn 0.0977 -0.2403 -0.9658
vn -0.1976 -0.8429 0.5005
vn -0.0744 0.4407 0.8946
vn -0.0760 0.8951 -0.4394
vn -0.8409 0.0689 -0.5368
vn 0.8867 -0.0474 -0.4598
vn -0.5419 -0.1293 -0.8304
vn -0.5582 -0.1523 0.8156
vn 0.0279 0.9274 0.3731
vn -0.1095 0.0888 0.9900
vn 0.7642 -0.2963 -0.5728
vn 0.3715 -0.0682 0.9259
vn 0.3605 -0.1395 -0.9223
vn 0.9495 -0.0445 0.3107
vn -0.6390 -0.1353 0.7572
vn 0.8707 -0.1391 -0.4717
vn -0.1031 -0.1260 0.9867
vn -0.5875 0.0444 0.8080
vn 0.8280 -0.0923 -0.5531
vn 0.2762 -0.0920 0.9567
vn -0.6840 0.0953 -0.7232
vn -0.6770 -0.0183 -0.7357
vn -0.8408 0.0255 -0.5408
vn -0.6711 0.0041 0.7414
vn 0.2945 -0.2165 0.9308
vn -0.1289 0.3216 -0.9381
vn -0.8639 0.1315 -0.4862
g head
s off
f 2//1 1//1 21//1
f 21//2 11//2 12//2
f 1//3 25//3 21//3
g thigh.L
f 4//4 2//4 26//4
g upper_arm.L
f 39//5 37//5 41//5
g head
f 26//6 21//6 22//6 28//6
f 21//7 23//7 11//7
f 22//8 21//8 12//8 24//8
g hand.L
f 24//9 23//9 33//9
g upper_arm.R
f 37//10 39//10 38//10 36//10
g spine
f 18//11 17//11 9//11 7//11
f 16//12 15//12 19//12 20//12
f 19//13 18//13 7//13 8//13
f 20//14 19//14 8//14 10//14
f 17//15 20//15 10//15 9//15
f 50//16 51//16 44//16
f 50//17 52//17 51//17
f 52//18 50//18 45//18
f 18//19 13//19 14//19 17//19
f 15//20 13//20 18//20 19//20
f 16//21 20//21 17//21 14//21
g hand.L
f 36//22 38//22 40//22 33//22
f 25//23 32//23 23//23 21//23
f 24//24 33//24 34//24 28//24 22//24
f 32//25 36//25 33//25 23//25
g spine
f 12//26 16//26 14//26 24//26
f 24//27 14//27 13//27 23//27
f 23//28 13//28 15//28 11//28
f 11//29 15//29 16//29 12//29
f 50//30 46//30 45//30
f 44//31 46//31 50//31
g head
f 26//32 2//32 21//32
g base
f 25//33 1//33 3//33
g spine
f 45//34 44//34 51//34 52//34
g hand.L
f 38//35 43//35 40//35
g base
f 48//36 39//36 42//36
f 38//37 48//37 43//37
g upper_arm.L
f 39//38 41//38 42//38
g hand.L
f 48//39 38//39 39//39
g base
f 49//40 47//40 43//40
g spine
f 46//41 44//41 48//41
g upper_arm.L
f 49//42 44//42 45//42
g spine
f 47//43 49//43 45//43
g base
f 48//44 42//44 46//44
f 44//45 49//45 48//45
g spine
f 42//46 47//46 46//46
f 47//47 42//47 41//47
f 47//48 45//48 46//48
f 43//49 47//49 40//49
g base
f 43//50 48//50 49//50
g hand.L
f 41//51 37//51 34//51 33//51
g upper_arm.L
f 40//52 47//52 41//52 33//52
g thigh.L
f 6//53 27//53 5//53
g shin.L
f 27//54 54//54 53//54
g thigh.L
f 5//55 27//55 25//55
f 4//56 26//56 6//56
g upper_arm.R
f 68//57 70//57 37//57
g shin.L
f 26//58 28//58 29//58 27//58
f 27//59 53//59 30//59
f 29//60 31//60 54//60 27//60
f 31//61 35//61 30//61
g upper_arm.R
f 37//62 36//62 67//62 68//62
g thigh.R
f 60//63 63//63 65//63 59//63
g shin.R
f 58//64 62//64 61//64 57//64
g thigh.R
f 61//65 64//65 63//65 60//65
f 62//66 66//66 64//66 61//66
g hand.R
f 59//67 65//67 66//67 62//67
f 79//68 73//68 80//68
f 79//17 80//17 81//17
f 81//69 74//69 79//69
g thigh.R
f 60//70 59//70 56//70 55//70
f 57//71 61//71 60//71 55//71
g shin.R
f 58//72 56//72 59//72 62//72
g upper_arm.R
f 36//73 35//73 69//73 67//73
g thigh.L
f 25//74 27//74 30//74 32//74
g shin.L
f 31//75 29//75 28//75 34//75 35//75
g foot.L
f 32//76 30//76 35//76 36//76
g shin.R
f 54//77 31//77 56//77 58//77
g shin.L
f 31//78 30//78 55//78 56//78
f 30//79 53//79 57//79 55//79
g shin.R
f 53//80 54//80 58//80 57//80
g hand.R
f 79//81 74//81 75//81
f 73//82 79//82 75//82
g thigh.L
f 26//83 27//83 6//83
f 25//84 3//84 5//84
g forearm.R
f 74//85 81//85 80//85 73//85
g upper_arm.R
f 67//86 69//86 72//86
f 77//87 71//87 68//87
g foot.R
f 67//88 72//88 77//88
g upper_arm.R
f 68//89 71//89 70//89
f 77//90 68//90 67//90
g foot.R
f 78//91 72//91 76//91
g forearm.R
f 75//92 77//92 73//92
f 78//93 74//93 73//93
g foot.R
f 76//94 74//94 78//94
g shin.R
f 77//95 75//95 71//95
g foot.R
f 73//96 77//96 78//96
g shin.R
f 71//97 75//97 76//97
f 76//98 70//98 71//98
f 76//99 75//99 74//99
g foot.R
f 72//100 69//100 76//100
f 72//101 78//101 77//101
g foot.L
f 70//102 35//102 34//102 37//102
g upper_arm.R
f 69//103 35//103 70//103 76//103
